<svg xmlns="http://www.w3.org/2000/svg" width="46" height="46" viewBox="0 0 46 46">
  <metadata><?xpacket begin="﻿" id="W5M0MpCehiHzreSzNTczkc9d"?>
<x:xmpmeta xmlns:x="adobe:ns:meta/" x:xmptk="Adobe XMP Core 5.6-c138 79.159824, 2016/09/14-01:09:01        ">
   <rdf:RDF xmlns:rdf="http://www.w3.org/1999/02/22-rdf-syntax-ns#">
      <rdf:Description rdf:about=""/>
   </rdf:RDF>
</x:xmpmeta>
                                                                                                    
                                                                                                    
                                                                                                    
                                                                                                    
                                                                                                    
                                                                                                    
                                                                                                    
                                                                                                    
                                                                                                    
                                                                                                    
                                                                                                    
                                                                                                    
                                                                                                    
                                                                                                    
                                                                                                    
                                                                                                    
                                                                                                    
                                                                                                    
                                                                                                    
                                                                                                    
                           
<?xpacket end="w"?></metadata>
<defs>
    <style>
      .cls-1 {
        fill: #fff;
        fill-rule: evenodd;
      }
    </style>
  </defs>
  <path id="alert_error" class="cls-1" d="M251,513a23,23,0,1,1,23-23A23,23,0,0,1,251,513Zm0.007-40c-2.569,0-3.953.45-3.953,2.15,0,0.8.3,2.349,0.791,5.849l2.075,14.049a2.119,2.119,0,0,0,2.174,0L254.169,481c0.494-3.5.79-5.049,0.79-5.849C254.959,473.446,253.576,473,251.007,473Zm0,24.8a4.1,4.1,0,0,0,0,8.2,3.891,3.891,0,0,0,4-4.05A4.063,4.063,0,0,0,251.007,497.794Z" transform="translate(-228 -467)"/>
</svg>
