<svg id="competition-lost" xmlns="http://www.w3.org/2000/svg" width="256" height="256" viewBox="0 0 256 256">
  <metadata><?xpacket begin="﻿" id="W5M0MpCehiHzreSzNTczkc9d"?>
<x:xmpmeta xmlns:x="adobe:ns:meta/" x:xmptk="Adobe XMP Core 5.6-c138 79.159824, 2016/09/14-01:09:01        ">
   <rdf:RDF xmlns:rdf="http://www.w3.org/1999/02/22-rdf-syntax-ns#">
      <rdf:Description rdf:about=""/>
   </rdf:RDF>
</x:xmpmeta>
                                                                                                    
                                                                                                    
                                                                                                    
                                                                                                    
                                                                                                    
                                                                                                    
                                                                                                    
                                                                                                    
                                                                                                    
                                                                                                    
                                                                                                    
                                                                                                    
                                                                                                    
                                                                                                    
                                                                                                    
                                                                                                    
                                                                                                    
                                                                                                    
                                                                                                    
                                                                                                    
                           
<?xpacket end="w"?></metadata>
<defs>
    <style>
      .cls-1 {
        fill: #fa4b4b;
      }

      .cls-1, .cls-2 {
        fill-rule: evenodd;
      }

      .cls-2, .cls-3 {
        fill: #1e252a;
      }

      .cls-3 {
        font-size: 19.495px;
        text-anchor: middle;
        font-family: Brill;
        font-weight: 700;
        font-style: italic;
      }
    </style>
  </defs>
  <path id="macaron" class="cls-1" d="M361,1222a128,128,0,1,1,128-128A128,128,0,0,1,361,1222Zm0-254a126,126,0,1,0,126,126A126,126,0,0,0,361,968Zm0,249a123,123,0,1,1,123-123A123,123,0,0,1,361,1217Z" transform="translate(-233 -966)"/>
  <path id="cross" class="cls-2" d="M364.036,1075.5l49.143,49.14a2.5,2.5,0,0,1-3.535,3.54L360.5,1079.04l-49.144,49.14a2.5,2.5,0,0,1-3.535-3.54l49.143-49.14-49.143-49.14a2.5,2.5,0,1,1,3.535-3.54l49.144,49.14,49.144-49.14a2.5,2.5,0,1,1,3.535,3.54Z" transform="translate(-233 -966)"/>
  <text id="You_lost." data-name="You lost." class="cls-3" transform="translate(126.765 203.92) scale(2.565)">You lost.</text>
</svg>
