<svg id="competition-win" xmlns="http://www.w3.org/2000/svg" width="337" height="295" viewBox="0 0 337 295">
  <metadata><?xpacket begin="﻿" id="W5M0MpCehiHzreSzNTczkc9d"?>
<x:xmpmeta xmlns:x="adobe:ns:meta/" x:xmptk="Adobe XMP Core 5.6-c138 79.159824, 2016/09/14-01:09:01        ">
   <rdf:RDF xmlns:rdf="http://www.w3.org/1999/02/22-rdf-syntax-ns#">
      <rdf:Description rdf:about=""/>
   </rdf:RDF>
</x:xmpmeta>
                                                                                                    
                                                                                                    
                                                                                                    
                                                                                                    
                                                                                                    
                                                                                                    
                                                                                                    
                                                                                                    
                                                                                                    
                                                                                                    
                                                                                                    
                                                                                                    
                                                                                                    
                                                                                                    
                                                                                                    
                                                                                                    
                                                                                                    
                                                                                                    
                                                                                                    
                                                                                                    
                           
<?xpacket end="w"?></metadata>
<defs>
    <style>
      .cls-1 {
        fill: #fae74b;
      }

      .cls-1, .cls-2 {
        fill-rule: evenodd;
      }

      .cls-2, .cls-3, .cls-4 {
        fill: #1e252a;
      }

      .cls-3 {
        font-size: 19.495px;
      }

      .cls-3, .cls-4 {
        text-anchor: middle;
        font-family: Brill;
        font-weight: 700;
        font-style: italic;
      }

      .cls-4 {
        font-size: 11.697px;
      }
    </style>
  </defs>
  <path id="macaron" class="cls-1" d="M516.519,1120.69l-4.071-1.04c-2.638-.67-4.222-2.46-4.222-4.16s1.584-3.49,4.222-4.16l4.071-1.04c6.734-1.72,12.481.62,12.481,5.2S523.253,1122.41,516.519,1120.69Zm-3.972-40.56-4.2.05c-2.723.03-4.715-1.28-5.155-2.92s0.627-3.78,3-5.12l3.663-2.06c6.06-3.4,12.217-2.63,13.4,1.8S519.5,1080.05,512.547,1080.13Zm-14.334-38.14-4.046,1.13c-2.622.74-4.886-.02-5.738-1.49s-0.372-3.81,1.576-5.72l3-2.93c4.971-4.86,11.119-5.71,13.41-1.74S504.905,1040.11,498.213,1041.99Zm-23.719-33.14-3.615,2.14c-2.342,1.39-4.724,1.25-5.928.04s-1.346-3.58.042-5.92l2.143-3.62c3.545-5.977,9.264-8.385,12.5-5.145S480.472,1005.31,474.494,1008.85ZM361,1242a128,128,0,1,1,128-128A128,128,0,0,1,361,1242Zm0-254a126,126,0,1,0,126,126A126,126,0,0,0,361,988Zm0,249a123,123,0,1,1,123-123A123,123,0,0,1,361,1237Zm79.07-251.015c-1.9,1.948-4.241,2.427-5.716,1.575s-2.228-3.115-1.493-5.737L434,977.777c1.876-6.692,6.778-10.5,10.746-8.207s3.123,8.439-1.735,13.41ZM403.837,969.8c-1.334,2.374-3.468,3.442-5.113,3s-2.959-2.433-2.927-5.155l0.048-4.2c0.081-6.95,3.83-11.895,8.256-10.709s5.2,7.343,1.8,13.4Zm-39.185-6.252c-0.674,2.638-2.459,4.222-4.162,4.222s-3.488-1.584-4.162-4.222l-1.041-4.071c-1.721-6.734.621-12.481,5.2-12.481s6.924,5.747,5.2,12.481Zm-42.4,9.258c-1.645.441-3.779-.627-5.113-3l-2.059-3.663c-3.405-6.059-2.631-12.216,1.8-13.4s8.176,3.759,8.256,10.709l0.048,4.2C325.215,970.377,323.9,972.37,322.256,972.81Zm-35.628,14.761c-1.474.851-3.812,0.372-5.715-1.576l-2.937-3c-4.857-4.971-5.7-11.119-1.735-13.41s8.87,1.515,10.746,8.207l1.135,4.046C288.857,984.455,288.1,986.719,286.628,987.571Zm-36.522,23.439-3.614-2.15c-5.979-3.54-8.387-9.26-5.147-12.5s8.96-.832,12.5,5.15l2.143,3.61c1.388,2.34,1.246,4.73.042,5.93S252.448,1012.4,250.106,1011.01ZM227.99,1198.02c-4.971,4.86-11.119,5.71-13.41,1.74s1.515-8.87,8.207-10.75l4.046-1.13c2.622-.74,4.886.02,5.738,1.49s0.372,3.81-1.576,5.72Zm-1.167-154.88-4.046-1.14c-6.692-1.87-10.5-6.77-8.207-10.74s8.439-3.12,13.41,1.73l3.005,2.94c1.948,1.9,2.427,4.24,1.575,5.72S229.445,1043.87,226.823,1043.14Zm-9.018,34.14c-0.441,1.64-2.433,2.95-5.155,2.92l-4.2-.05c-6.95-.08-11.9-3.83-10.709-8.25s7.343-5.2,13.4-1.8l3.663,2.06C217.178,1073.5,218.246,1075.63,217.805,1077.28Zm-13.324,33.03,4.071,1.04c2.638,0.67,4.222,2.46,4.222,4.16s-1.584,3.49-4.222,4.16l-4.071,1.04c-6.734,1.72-12.481-.62-12.481-5.2S197.747,1108.59,204.481,1110.31Zm3.972,40.56,4.2-.05c2.722-.04,4.715,1.28,5.155,2.92s-0.627,3.78-3,5.12l-3.663,2.06c-6.059,3.4-12.216,2.63-13.4-1.8S201.5,1150.95,208.453,1150.87Zm285.724,36.99,4.046,1.13c6.692,1.88,10.5,6.78,8.207,10.75s-8.439,3.12-13.41-1.73l-3-2.94c-1.948-1.9-2.427-4.24-1.575-5.72S491.555,1187.13,494.177,1187.86Zm9.018-34.14c0.441-1.64,2.433-2.95,5.155-2.92l4.2,0.05c6.95,0.08,11.895,3.83,10.709,8.25s-7.343,5.2-13.4,1.8l-3.663-2.06C503.822,1157.5,502.754,1155.37,503.2,1153.72Z" transform="translate(-192 -947)"/>
  <path id="cup" class="cls-2" d="M393.285,1060.07a34.874,34.874,0,0,1-24.5,26.03,13.171,13.171,0,0,0,9.939,13.98,0.031,0.031,0,0,0,.027.01,1.862,1.862,0,0,1,.231.07c0.01,0,.02.01,0.029,0.01l0.22,0.09a0.068,0.068,0,0,1,.037.02,1.671,1.671,0,0,1,.2.1l0.041,0.03a0.849,0.849,0,0,1,.179.12c0.014,0.01.026,0.02,0.038,0.03a1.474,1.474,0,0,1,.17.13l0.026,0.03c0.058,0.05.113,0.11,0.165,0.16,0,0.01.007,0.01,0.01,0.01a2.816,2.816,0,0,1,.729,1.9v8.3h7.526a2.73,2.73,0,0,1,2.688,2.77v19.37a2.73,2.73,0,0,1-2.688,2.77H331.905a2.729,2.729,0,0,1-2.687-2.77v-19.37a2.729,2.729,0,0,1,2.687-2.77h7.526v-8.3c0-.02,0-0.03,0-0.04,0-.08,0-0.16.011-0.23,0-.02.006-0.04,0.008-0.06,0.008-.07.017-0.14,0.031-0.21,0-.03.012-0.06,0.018-0.09,0.013-.05.027-0.11,0.044-0.17,0.01-.03.022-0.07,0.033-0.1,0.017-.05.033-0.1,0.052-0.15s0.032-.07.048-0.11,0.04-.09.062-0.13,0.038-.07.058-0.11,0.048-.08.074-0.12,0.041-.06.063-0.09a1.025,1.025,0,0,1,.091-0.13c0.02-.03.042-0.05,0.063-0.08s0.072-.08.11-0.12l0.064-.06c0.041-.04.083-0.08,0.127-0.12l0.067-.06c0.045-.03.09-0.07,0.138-0.1l0.08-.06a0.872,0.872,0,0,1,.137-0.08l0.1-.06,0.126-.06a0.73,0.73,0,0,1,.137-0.05,0.466,0.466,0,0,1,.107-0.04,1.007,1.007,0,0,1,.165-0.05,0.209,0.209,0,0,1,.076-0.02,13.2,13.2,0,0,0,9.944-13.91,34.876,34.876,0,0,1-24.773-26.11A31.548,31.548,0,0,1,308,1031.1a2.73,2.73,0,0,1,2.688-2.77h15.123v-13.56A2.73,2.73,0,0,1,328.5,1012h62.986a2.73,2.73,0,0,1,2.688,2.77v13.56h15.139A2.73,2.73,0,0,1,412,1031.1,31.538,31.538,0,0,1,393.285,1060.07Zm-67.472-7.86c0-.01,0-0.02,0-0.03v-18.31H313.524a26.071,26.071,0,0,0,12.315,19.58C325.824,1053.04,325.814,1052.63,325.813,1052.21Zm8.78,64.42v13.83H385.66v-13.83H334.593Zm10.213-11.08v5.54h30.64v-5.54h-30.64Zm23.483-5.53a19.112,19.112,0,0,1-4.929-12.9c-1.108.11-2.232,0.17-3.368,0.17-1.044,0-2.077-.06-3.1-0.15a18.945,18.945,0,0,1-4.906,12.88h16.3Zm20.508-82.48h-57.61v34.55c0,16.35,12.922,29.66,28.805,29.66s28.805-13.31,28.805-29.66h0v-34.55Zm5.376,16.33v18.31c0,0.01,0,.02,0,0.03,0,0.42-.011.83-0.027,1.25a26.066,26.066,0,0,0,12.332-19.59h-12.3Zm-24.366,17.12,1.365,8.19a2.81,2.81,0,0,1-1.069,2.71,2.614,2.614,0,0,1-2.831.21l-7.146-3.87-7.146,3.87a2.621,2.621,0,0,1-2.83-.21,2.81,2.81,0,0,1-1.069-2.71l1.365-8.19-5.782-5.81a2.81,2.81,0,0,1-.68-2.83,2.7,2.7,0,0,1,2.17-1.89l7.989-1.19,3.573-7.46a2.656,2.656,0,0,1,4.82,0l3.573,7.46,7.99,1.19a2.7,2.7,0,0,1,2.17,1.89,2.812,2.812,0,0,1-.68,2.83Zm-5.869-6.46a2.679,2.679,0,0,1-2.024-1.51l-1.788-3.73-1.788,3.73a2.679,2.679,0,0,1-2.024,1.51l-4,.6,2.893,2.91a2.809,2.809,0,0,1,.773,2.45l-0.683,4.1,3.576-1.94a2.605,2.605,0,0,1,2.5,0l3.576,1.94-0.683-4.1a2.815,2.815,0,0,1,.773-2.45l2.893-2.91Zm4.52,81.78H351.8a2.766,2.766,0,0,1,0-5.53h16.663A2.766,2.766,0,0,1,368.458,1126.31Z" transform="translate(-192 -947)"/>
  <text id="You_won_" data-name="You won!" class="cls-3" transform="translate(167.765 232.921) scale(2.565)">You won!</text>
  <text id="Click_here" data-name="Click here" class="cls-4" transform="translate(167.765 260.921) scale(2.565)">Click here</text>
</svg>
