<svg id="gallerie-photo-circle" xmlns="http://www.w3.org/2000/svg" width="132" height="132" viewBox="0 0 132 132">
  <metadata><?xpacket begin="﻿" id="W5M0MpCehiHzreSzNTczkc9d"?>
<x:xmpmeta xmlns:x="adobe:ns:meta/" x:xmptk="Adobe XMP Core 5.6-c138 79.159824, 2016/09/14-01:09:01        ">
   <rdf:RDF xmlns:rdf="http://www.w3.org/1999/02/22-rdf-syntax-ns#">
      <rdf:Description rdf:about=""/>
   </rdf:RDF>
</x:xmpmeta>
                                                                                                    
                                                                                                    
                                                                                                    
                                                                                                    
                                                                                                    
                                                                                                    
                                                                                                    
                                                                                                    
                                                                                                    
                                                                                                    
                                                                                                    
                                                                                                    
                                                                                                    
                                                                                                    
                                                                                                    
                                                                                                    
                                                                                                    
                                                                                                    
                                                                                                    
                                                                                                    
                           
<?xpacket end="w"?></metadata>
<defs>
    <style>
      .cls-1 {
        fill: #023466;
      }

      .cls-2 {
        fill: #fff;
        fill-rule: evenodd;
      }
    </style>
  </defs>
  <circle class="cls-1" cx="66" cy="66" r="66"/>
  <path id="gallerie-photo" class="cls-2" d="M226,397H162a8,8,0,0,1-8-8V349a8,8,0,0,1,8-8h16v-1a4,4,0,0,1,4-4h24a4,4,0,0,1,4,4v1h16a8,8,0,0,1,8,8v40A8,8,0,0,1,226,397Zm5-48a5,5,0,0,0-5-5H162a5,5,0,0,0-5,5v40a5,5,0,0,0,5,5h64a5,5,0,0,0,5-5V349Zm-7,8h-8a3,3,0,0,1-3-3v-3a3,3,0,0,1,3-3h8a3,3,0,0,1,3,3v3A3,3,0,0,1,224,357Zm-30,31a19,19,0,1,1,19-19A19,19,0,0,1,194,388Zm0-35a16,16,0,1,0,16,16A16,16,0,0,0,194,353Z" transform="translate(-128 -300)"/>
</svg>
