<svg xmlns="http://www.w3.org/2000/svg" width="102" height="80" viewBox="0 0 102 80">
  <metadata><?xpacket begin="﻿" id="W5M0MpCehiHzreSzNTczkc9d"?>
<x:xmpmeta xmlns:x="adobe:ns:meta/" x:xmptk="Adobe XMP Core 5.6-c138 79.159824, 2016/09/14-01:09:01        ">
   <rdf:RDF xmlns:rdf="http://www.w3.org/1999/02/22-rdf-syntax-ns#">
      <rdf:Description rdf:about=""/>
   </rdf:RDF>
</x:xmpmeta>
                                                                                                    
                                                                                                    
                                                                                                    
                                                                                                    
                                                                                                    
                                                                                                    
                                                                                                    
                                                                                                    
                                                                                                    
                                                                                                    
                                                                                                    
                                                                                                    
                                                                                                    
                                                                                                    
                                                                                                    
                                                                                                    
                                                                                                    
                                                                                                    
                                                                                                    
                                                                                                    
                           
<?xpacket end="w"?></metadata>
<defs>
    <style>
      .cls-1 {
        fill: #1e252a;
        fill-rule: evenodd;
      }
    </style>
  </defs>
  <path class="cls-1" d="M576.007,588.985l-4.748,50.792a9.131,9.131,0,0,1-9.9,8.225l-25.987-2.425-42.513,7.286a10.485,10.485,0,0,1-2.379.052,9.132,9.132,0,0,1-8.057-7.614l-8.25-48.528a9.179,9.179,0,0,1,1.55-6.809,8.94,8.94,0,0,1,5.913-3.656l10.775-1.923,0.3-3.174a9.131,9.131,0,0,1,9.9-8.225L567.8,579.07A9.127,9.127,0,0,1,576.007,588.985Zm-93.791.854a5.314,5.314,0,0,0-3.587,2.227,5.588,5.588,0,0,0-.934,4.121l8.251,48.528a5.321,5.321,0,0,0,2.221,3.593,5.567,5.567,0,0,0,4.114.933l29.054-4.974-25.172-2.349A9.128,9.128,0,0,1,487.956,632l4.1-43.9Zm85.245-7.141-65.193-6.084a5.479,5.479,0,0,0-5.942,4.935l-4.748,50.792a5.476,5.476,0,0,0,4.924,5.949l65.193,6.084a5.479,5.479,0,0,0,5.942-4.935l1.874-20.045c-0.082-.1-0.255-0.207-0.337-0.306l-9.766-11.8L525.946,635a1.756,1.756,0,0,1-2.535-.236,1.763,1.763,0,0,1,.237-2.54l8.021-6.662-0.082-.1-9.52-11.5-9.7,8.061a1.8,1.8,0,1,1-2.3-2.777l9.7-8.06a3.676,3.676,0,0,1,5.071.473l9.52,11.5,0.082,0.1,22.668-18.745a3.513,3.513,0,0,1,5.071.473l7.8,9.42,2.408-25.759A5.476,5.476,0,0,0,567.461,582.7Zm-56.7,20.326a9.11,9.11,0,1,1,9.9-8.225A9.128,9.128,0,0,1,510.759,603.024Zm1.357-14.512a5.466,5.466,0,1,0,4.924,5.949A5.479,5.479,0,0,0,512.116,588.512Zm-6.8,34.68a1.8,1.8,0,0,1,2.3,2.777l-1.981,1.645a1.755,1.755,0,0,1-2.535-.237,1.763,1.763,0,0,1,.237-2.54Z" transform="translate(-474.031 -572.969)"/>
</svg>
