<svg id="icone_1" data-name="icone 1" xmlns="http://www.w3.org/2000/svg" width="184.062" height="55.875" viewBox="0 0 184.062 55.875">
  <metadata><?xpacket begin="﻿" id="W5M0MpCehiHzreSzNTczkc9d"?>
<x:xmpmeta xmlns:x="adobe:ns:meta/" x:xmptk="Adobe XMP Core 5.6-c138 79.159824, 2016/09/14-01:09:01        ">
   <rdf:RDF xmlns:rdf="http://www.w3.org/1999/02/22-rdf-syntax-ns#">
      <rdf:Description rdf:about=""/>
   </rdf:RDF>
</x:xmpmeta>
                                                                                                    
                                                                                                    
                                                                                                    
                                                                                                    
                                                                                                    
                                                                                                    
                                                                                                    
                                                                                                    
                                                                                                    
                                                                                                    
                                                                                                    
                                                                                                    
                                                                                                    
                                                                                                    
                                                                                                    
                                                                                                    
                                                                                                    
                                                                                                    
                                                                                                    
                                                                                                    
                           
<?xpacket end="w"?></metadata>
<defs>
    <style>
      .cls-1 {
        fill: #1e252a;
      }

      .cls-1, .cls-2 {
        fill-rule: evenodd;
      }

      .cls-2 {
        fill: none;
        stroke: #1e252a;
        stroke-width: 4px;
        stroke-dasharray: 16 8;
      }
    </style>
  </defs>
  <path class="cls-1" d="M114.079,638.213a8,8,0,1,1-9.828,5.649A8.017,8.017,0,0,1,114.079,638.213Zm167.983-39.881a8,8,0,1,1-9.828,5.648A8.015,8.015,0,0,1,282.062,598.332Z" transform="translate(-103.969 -598.063)"/>
  <path id="Forme_3" data-name="Forme 3" class="cls-2" d="M120.879,637.894s34.312-35.323,70.1-14.345,77.311-10.343,77.311-10.343" transform="translate(-103.969 -598.063)"/>
  <path id="Forma_1" data-name="Forma 1" class="cls-1" d="M198.322,630.785q2.58-.489,3.2-2.15,0.342-1.74-1.592-3.517a11.273,11.273,0,0,0-4.615-2.54l-5.644-1.607-4.77-17.133a0.754,0.754,0,0,0-.559-0.58l-4.515-1.286a0.8,0.8,0,0,0-.726.138,0.876,0.876,0,0,0-.33.691l0.072,15.087-9.136-2.6-1.241-5.082a0.555,0.555,0,0,0-.078-0.2,0.81,0.81,0,0,0-.494-0.409l-3.409-.951a0.888,0.888,0,0,0-.68.113,0.781,0.781,0,0,0-.358.587l0.821,8.643-5.266,6.975a0.941,0.941,0,0,0,.007.711l0.026,0.046a0.806,0.806,0,0,0,.493.409l3.386,0.964a0.79,0.79,0,0,0,.8-0.212l3.731-3.666,9.136,2.6-8.006,12.787a0.721,0.721,0,0,0-.1.68,0.57,0.57,0,0,0,.066.172,0.728,0.728,0,0,0,.374.355l3.79,1.692a0.785,0.785,0,0,0,.9-0.145L187.382,628.9l5.679,1.617A11.28,11.28,0,0,0,198.322,630.785Z" transform="translate(-103.969 -598.063)"/>
</svg>
