<svg xmlns="http://www.w3.org/2000/svg" width="97.531" height="104.654" viewBox="0 0 97.531 104.654">
  <metadata><?xpacket begin="﻿" id="W5M0MpCehiHzreSzNTczkc9d"?>
<x:xmpmeta xmlns:x="adobe:ns:meta/" x:xmptk="Adobe XMP Core 5.6-c138 79.159824, 2016/09/14-01:09:01        ">
   <rdf:RDF xmlns:rdf="http://www.w3.org/1999/02/22-rdf-syntax-ns#">
      <rdf:Description rdf:about=""/>
   </rdf:RDF>
</x:xmpmeta>
                                                                                                    
                                                                                                    
                                                                                                    
                                                                                                    
                                                                                                    
                                                                                                    
                                                                                                    
                                                                                                    
                                                                                                    
                                                                                                    
                                                                                                    
                                                                                                    
                                                                                                    
                                                                                                    
                                                                                                    
                                                                                                    
                                                                                                    
                                                                                                    
                                                                                                    
                                                                                                    
                           
<?xpacket end="w"?></metadata>
<defs>
    <style>
      .cls-1 {
        fill: #1e252a;
        fill-rule: evenodd;
      }
    </style>
  </defs>
  <path id="_" data-name="!" class="cls-1" d="M234.78,952.52h-24.9c-0.487,0-.887,0-1.223-0.01s-0.747-.01-0.9.007c-0.161.111-.554,0.484-0.934,0.846-0.15.143-.321,0.3-0.5,0.475l-7.045,6.647a1.9,1.9,0,0,1-2.089.35A2.026,2.026,0,0,1,196,959.017V920.552A9.477,9.477,0,0,1,205.36,911h29.421A9.361,9.361,0,0,1,244,920.552v22.372A9.4,9.4,0,0,1,234.78,952.52Zm5.38-31.968a5.447,5.447,0,0,0-5.38-5.577H205.36a5.563,5.563,0,0,0-5.519,5.577v33.96l3.86-3.612c0.179-.169.379-0.323,0.525-0.463,1.763-1.682,2.214-1.95,4.513-1.9,0.314,0.007.687,0.009,1.142,0.009h24.9a5.485,5.485,0,0,0,5.38-5.62V920.552Zm-15.113,1.916q-0.381,1.1-1.06,2.8t-1.68,4.26q-0.321.8-.7,1.8t-0.72,1.9q-0.341.9-.58,1.54c-0.16.427-.254,0.68-0.28,0.76a0.824,0.824,0,0,1-.72.16,5.011,5.011,0,0,1-.58-0.02c-0.094-.013-0.14-0.046-0.14-0.1s0.04-.426.12-1.12,0.18-1.566.3-2.62,0.26-2.193.42-3.42,0.313-2.406.46-3.54,0.28-2.133.4-3,0.22-1.46.3-1.78a2.29,2.29,0,0,1,1.1-1.54,3.868,3.868,0,0,1,1.98-.5,2.771,2.771,0,0,1,1.44.38,1.278,1.278,0,0,1,.64,1.18,4.869,4.869,0,0,1-.16,1.1Q225.426,921.368,225.047,922.468Zm-4.22,17.82a3.52,3.52,0,0,1-.18,1.08,3.246,3.246,0,0,1-.54,1.02,3.027,3.027,0,0,1-.88.76,2.36,2.36,0,0,1-1.2.3,2.523,2.523,0,0,1-1.74-.62,2.25,2.25,0,0,1-.7-1.78,3.315,3.315,0,0,1,.72-2.06,2.552,2.552,0,0,1,2.16-.94,2.4,2.4,0,0,1,1.74.6A2.178,2.178,0,0,1,220.827,940.288ZM190.939,934a1.964,1.964,0,0,1-2.695-.671l-3.857-6.68a9.846,9.846,0,0,0-11.964-4.068,2.057,2.057,0,0,1-.478.116l-8.987,5.189a2.075,2.075,0,0,1-.34.356,9.848,9.848,0,0,0-2.46,12.395l3.858,6.681,12.114-6.994a1.964,1.964,0,0,1,2.695.671l18.321,31.733a1.964,1.964,0,0,1-.766,2.67L184.266,982.4l8.678,15.032,24.229-13.989-11.813-20.46c-0.015-.026-0.027-0.054-0.041-0.08-1.209-.232,3.505-1.974,3.505-1.974l13.764,23.841-29.446,17a1.968,1.968,0,0,1-2.695-.67L156.7,942.638a13.534,13.534,0,0,1,2.186-16.2l-7.774-13.463a5.72,5.72,0,0,1-3.882-2.729,5.9,5.9,0,0,1,2.3-8.008l6.922-4a5.9,5.9,0,0,1,8.085,2.013,5.681,5.681,0,0,1,.423,4.729l7.772,13.461a13.532,13.532,0,0,1,15.12,6.206l3.858,6.681A1.964,1.964,0,0,1,190.939,934Zm-8.6,45.051,10.384-6-16.393-28.393-10.384,5.995Zm-20.1-70.789-1.731,1a1.929,1.929,0,1,1-1.928-3.34l1.731-1a1.93,1.93,0,1,0-1.929-3.34l-6.922,4a1.966,1.966,0,0,0-.767,2.669,1.932,1.932,0,0,0,1.705.944,1.908,1.908,0,0,1,1.81,1.186,1.823,1.823,0,0,1,.144.211l7.715,13.362,6.922-4Z" transform="translate(-146.469 -897.406)"/>
</svg>
