<svg xmlns="http://www.w3.org/2000/svg" width="86" height="102" viewBox="0 0 86 102">
  <metadata><?xpacket begin="﻿" id="W5M0MpCehiHzreSzNTczkc9d"?>
<x:xmpmeta xmlns:x="adobe:ns:meta/" x:xmptk="Adobe XMP Core 5.6-c138 79.159824, 2016/09/14-01:09:01        ">
   <rdf:RDF xmlns:rdf="http://www.w3.org/1999/02/22-rdf-syntax-ns#">
      <rdf:Description rdf:about=""/>
   </rdf:RDF>
</x:xmpmeta>
                                                                                                    
                                                                                                    
                                                                                                    
                                                                                                    
                                                                                                    
                                                                                                    
                                                                                                    
                                                                                                    
                                                                                                    
                                                                                                    
                                                                                                    
                                                                                                    
                                                                                                    
                                                                                                    
                                                                                                    
                                                                                                    
                                                                                                    
                                                                                                    
                                                                                                    
                                                                                                    
                           
<?xpacket end="w"?></metadata>
<defs>
    <style>
      .cls-1 {
        fill: #1e252a;
        fill-rule: evenodd;
      }
    </style>
  </defs>
  <path class="cls-1" d="M552.524,938.545a28.749,28.749,0,0,1-20.261,21.411,10.848,10.848,0,0,0,8.219,11.5l0.022,0.006c0.065,0.016.129,0.034,0.191,0.055l0.024,0.009c0.062,0.022.123,0.046,0.182,0.073l0.03,0.015c0.056,0.026.111,0.055,0.164,0.086l0.034,0.021c0.051,0.031.1,0.063,0.148,0.1,0.011,0.007.021,0.016,0.032,0.024,0.048,0.036.1,0.073,0.14,0.114l0.022,0.02c0.047,0.043.093,0.088,0.137,0.135l0.008,0.009a2.3,2.3,0,0,1,.6,1.556v6.831h6.223a2.25,2.25,0,0,1,2.223,2.276v15.938a2.25,2.25,0,0,1-2.223,2.277H501.768a2.25,2.25,0,0,1-2.223-2.277V982.785a2.25,2.25,0,0,1,2.223-2.276h6.223v-6.83c0-.01,0-0.019,0-0.029,0-.065,0-0.129.01-0.193,0-.017,0-0.033.006-0.049,0.007-.057.015-0.115,0.026-0.171,0-.023.01-0.046,0.015-0.069,0.011-.048.022-0.1,0.036-0.143,0.008-.029.018-0.057,0.028-0.085s0.027-.081.043-0.12,0.026-.061.039-0.091,0.033-.073.051-0.108,0.032-.058.048-0.087,0.04-.069.061-0.1,0.035-.051.052-0.076,0.05-.07.076-0.1,0.035-.043.053-0.064,0.059-.069.09-0.1,0.035-.035.053-0.052c0.034-.033.069-0.066,0.105-0.1l0.056-.045c0.037-.03.074-0.059,0.113-0.087l0.067-.044c0.037-.024.074-0.048,0.113-0.07s0.057-.031.086-0.045,0.069-.036.1-0.052l0.114-.045c0.029-.011.058-0.023,0.088-0.033,0.045-.015.091-0.027,0.136-0.039l0.063-.018a10.857,10.857,0,0,0,8.223-11.44,28.741,28.741,0,0,1-20.486-21.479A25.943,25.943,0,0,1,482,914.71a2.25,2.25,0,0,1,2.222-2.277h12.507V901.277A2.25,2.25,0,0,1,498.951,899h52.085a2.25,2.25,0,0,1,2.222,2.277v11.156h12.519A2.25,2.25,0,0,1,568,914.71,25.942,25.942,0,0,1,552.524,938.545Zm-55.794-6.467c0-.008,0-0.017,0-0.026V916.987H486.568A21.426,21.426,0,0,0,496.752,933.1C496.739,932.757,496.731,932.419,496.73,932.078Zm7.26,52.985v11.384h42.229V985.063H503.99Zm8.446-9.107v4.553h25.337v-4.553H512.436Zm19.418-4.554a15.68,15.68,0,0,1-4.076-10.614,27.559,27.559,0,0,1-2.784.141c-0.864,0-1.718-.042-2.563-0.12a15.546,15.546,0,0,1-4.056,10.593h13.479Zm16.959-67.849H501.174v28.421c0,13.455,10.685,24.4,23.819,24.4s23.82-10.946,23.82-24.4h0V903.553Zm4.445,13.434v15.065c0,0.009,0,.017,0,0.026,0,0.343-.01.685-0.022,1.025a21.427,21.427,0,0,0,10.2-16.116H553.258ZM533.11,931.069l1.129,6.741a2.3,2.3,0,0,1-.885,2.227,2.175,2.175,0,0,1-2.34.173l-5.909-3.182-5.91,3.182a2.175,2.175,0,0,1-2.34-.173,2.3,2.3,0,0,1-.884-2.227l1.128-6.74-4.781-4.774a2.314,2.314,0,0,1-.562-2.334,2.239,2.239,0,0,1,1.794-1.55l6.607-.983,2.955-6.133a2.2,2.2,0,0,1,3.985,0l2.955,6.133,6.607,0.983a2.239,2.239,0,0,1,1.794,1.55,2.314,2.314,0,0,1-.562,2.334Zm-4.854-5.307a2.223,2.223,0,0,1-1.673-1.245l-1.479-3.069-1.478,3.069a2.226,2.226,0,0,1-1.674,1.245l-3.306.493,2.392,2.389a2.31,2.31,0,0,1,.64,2.015l-0.565,3.374,2.957-1.593a2.181,2.181,0,0,1,2.069,0l2.957,1.593-0.565-3.374a2.313,2.313,0,0,1,.64-2.015l2.392-2.389Zm3.738,67.27H518.215a2.278,2.278,0,0,1,0-4.554h13.779A2.278,2.278,0,0,1,531.994,993.032Z" transform="translate(-482 -899)"/>
</svg>
